# xmcd CD database file
#
# Track frame offsets:
#	150
#	13663
#	30644
#	50397
#	62846
#	73093
#	82815
#	92478
#	113469
#	126043
#
# Disc length: 1841 seconds
#
# Revision: 0
# Processed by: cddbd v1.5.2PL0 Copyright (c) Steve Scherf et al.
# Submitted via: CDex 1.70beta2
#
DISCID=74072f0a
DTITLE=Glen Campbell - Country Hit Parade (Sampler)
DYEAR=2008
DGENRE=Country
TTITLE0=01-Rhinestone Cowboy
TTITLE1=02-Southern Nights (live)
TTITLE2=03-Medley: Wichita Lineman - Galveston - Country Boy (live)
TTITLE3=04-By the time I get to Phoenik
TTITLE4=05-Try a little kindness (live)
TTITLE5=06-Dreams of the everyday housewife
TTITLE6=07-Gentle on my mind
TTITLE7=08-Bridge over troubled water
TTITLE8=09-You'll never walk alone
TTITLE9=10-The impossible dream
EXTD=YEAR: 2008
EXTT0=
EXTT1=
EXTT2=
EXTT3=
EXTT4=
EXTT5=
EXTT6=
EXTT7=
EXTT8=
EXTT9=
PLAYORDER=
